IMDB
 
http://www.imdb.com/title/tt1525890/

Plot

Troubled divorcee Mary Kee is tormented by a series of sinister phone

calls from a mysterious woman. When the stranger reveals she's calling

from the past, Mary tries to break off contact. But the caller doesn't

like being ignored, and looks for revenge in a unique and terrifying way

Found the movie very entertaining and with its numerous twists, a movie

about who was who, what does it really mean and what was real or a dream.

a must see movie!

File Details




Cast

Stephen Moyer Stephen Moyer ...
John Guidi
Rachelle Lefevre Rachelle Lefevre ...
Mary Kee
Luis Guzmán Luis Guzmán ...
George
Ed Quinn Ed Quinn ...
Steven
Lorna Raver Lorna Raver ...
Rose
Cordelia González Cordelia González ...
Judge
Marisé Alvarez Marisé Alvarez ...
Nurse
Alfredo De Quesada Alfredo De Quesada ...
Attorney Davies
Brian Tester Brian Tester ...
Attorney Kirkby
Aris Mejias Aris Mejias ...
Young Woman
Gladys Rodríguez Gladys Rodríguez ...
Mrs. Guidi
Grace Connelly Grace Connelly ...
Dr. Hain
Jose Cotte Jose Cotte ...
Social Services Clerk
Leonardo Castro Leonardo Castro ...
Fire Dancer
Johnathan R. Santiago Johnathan R. Santiago ...



Genres:
Horror | Mystery | Thriller

Rated R for some violence/disturbing images, language and a scene of

sexuality


Country:
Puerto Rico


Language:
English

Color


General
Complete name : G:\TORRENTS\The Caller 2011 VOD

TiCTaC\The Caller 2011 VOD TiCTaC.avi
Format : AVI
Format/Info : Audio Video Interleave
File size : 461 MiB
Duration : 53mn 44s
Overall bit rate : 1 198 Kbps
Writing application : Lavf52.13.0
Writing library : VirtualDub build 32842/release

Video
ID : 0
Format : MPEG-4 Visual
Format profile : Simple@L1
Format settings, BVOP : No
Format settings, QPel : No
Format settings, GMC : No warppoints
Format settings, Matrix : Default (H.263)
Codec ID : XVID
Codec ID/Hint : XviD
Duration : 53mn 44s
Bit rate : 994 Kbps
Width : 720 pixels
Height : 432 pixels
Display aspect ratio : 16:9
Frame rate : 25.000 fps
Resolution : 8 bits
Colorimetry : 4:2:0
Scan type : Progressive
Bits/(Pixel*Frame) : 0.128
Stream size : 382 MiB (83%)
Writing library : Lavc51.54.0

Audio
ID : 1
Format : MPEG Audio
Format version : Version 1
Format profile : Layer 3
Mode : Joint stereo
Format_Settings_ModeExtension : MS Stereo
Codec ID : 55
Codec ID/Hint : MP3
Duration : 53mn 44s
Bit rate mode : Constant
Bit rate : 192 Kbps
Channel(s) : 2 channels
Sampling rate : 44.1 KHz
Stream size : 73.8 MiB (16%)
Alignment : Aligned on interleaves
Interleave, duration : 26 ms (0.65 video frame)
Interleave, preload duration : 522 ms
Writing library : LAME3.98 (beta)
